<?xml version="1.0" encoding="UTF-8" standalone="no"?>
<svg width="256" height="256" viewBox="0 0 256 256" fill="none" xmlns="http://www.w3.org/2000/svg">
    <rect width="256" height="256" rx="28" fill="#1E1E1E"/>
    <path d="M128 60C89.3989 60 58 91.3989 58 130C58 168.601 89.3989 200 128 200C166.601 200 198 168.601 198 130C198 91.3989 166.601 60 128 60ZM128 80C155.614 80 178 102.386 178 130C178 157.614 155.614 180 128 180C100.386 180 78 157.614 78 130C78 102.386 100.386 80 128 80Z" fill="#00FF00"/>
    <circle cx="128" cy="130" r="25" fill="#00FF00"/>
</svg>
